<svg xmlns="http://www.w3.org/2000/svg" width="218.03" height="29.06"  xmlns:v="https://vecta.io/nano"><path d="M150.53 11.35c0-3.57-2.19-6.16-6.39-6.16h-13.59V23.7H135v-6.32h5.29l5.18 6.32h5v-.41l-5-6a5.89 5.89 0 0 0 5.05-5.92m-6.9 2.29H135V9h8.62c1.6 0 2.62.85 2.62 2.32s-1 2.3-2.62 2.3m74.41-8.43h-4.18v7.02h-11.26V5.19h-4.52V23.7h4.52v-7.29h11.26v7.29h4.18V5.19zm-99.44 0l-4.97 15.57h-.28l-4.99-15.57h-7.96V23.7h4.26V8.5h.26l4.97 15.2h6.86l4.99-15.2h.27v15.2h4.39V5.19h-7.8zM70 12.76l-6.1-.59c-1.55-.16-2.45-.62-2.45-1.65s1-1.81 4.8-1.81a21.23 21.23 0 0 1 9.26 2v-4.1A21.4 21.4 0 0 0 66 4.67c-5.27 0-8.91 2.2-8.91 5.92 0 3.15 2.13 4.87 6.43 5.34 1.55.17 4.19.4 6 .56 2 .16 2.61.78 2.61 1.69 0 1.26-1.41 2-5 2a19.24 19.24 0 0 1-9.92-2.84v4.26A18.53 18.53 0 0 0 67 24.23c5.75 0 9.44-2.22 9.44-6.19 0-3-2-4.8-6.51-5.28"/><path d="M79.4 5.19V23.7h17.26v-3.78h-13v-3.76h12.78v-3.75H83.66V8.97h13V5.19H79.4zm109.43 7.57l-6.1-.59c-1.55-.16-2.45-.62-2.45-1.65s.95-1.81 4.8-1.81a21.23 21.23 0 0 1 9.26 2v-4.1a21.4 21.4 0 0 0-9.49-1.94c-5.26 0-8.91 2.2-8.91 5.92 0 3.15 2.14 4.87 6.43 5.34 1.55.17 4.19.4 6 .56 2 .16 2.61.78 2.61 1.69 0 1.26-1.41 2-5 2a19.2 19.2 0 0 1-9.91-2.84v4.26a18.49 18.49 0 0 0 9.77 2.6c5.75 0 9.44-2.22 9.44-6.19 0-3-2-4.8-6.51-5.28m-20.34-7.54v9.47c0 3.59-2.18 5.57-5.46 5.57s-5.46-1.95-5.46-5.62V5.19h-4.44v9c0 6.72 4.2 10 10 10 5.55 0 9.83-3.19 9.83-9.82V5.19z"/><path d="M41.76 14.34c0 .9-.45 1-1.6 1s-1.42-.21-1.56-1.11a4.79 4.79 0 0 0-4.44-4.52c-.84-.06-1-.38-1-1.42s.13-1.42.9-1.42a7.62 7.62 0 0 1 7.74 7.43m6.66 0C48.42 7.36 43.7 0 32.8 0H11.14c-.44 0-.71.23-.71.63a.75.75 0 0 0 .31.53 21 21 0 0 0 3.5 2.08C15.74 4 16.9 4.48 18.08 5c.49.2.69.42.69.71s-.27.61-.82.61H.75a.68.68 0 0 0-.75.62 1 1 0 0 0 .34.76 36.37 36.37 0 0 0 6.86 5.24 98.05 98.05 0 0 0 9.14 5c.47.23.63.49.62.76s-.26.57-.8.57H8.28c-.45 0-.7.24-.7.6a1 1 0 0 0 .38.65 30.94 30.94 0 0 0 8.48 5A40.17 40.17 0 0 0 32.54 29c11 0 15.88-8.27 15.88-14.72M34 24.23a9.94 9.94 0 0 1-9.93-9.89A9.87 9.87 0 0 1 34 4.58a9.83 9.83 0 1 1 0 19.65" fill="#ff642d"/></svg>