<svg xmlns="http://www.w3.org/2000/svg" width="94.95" height="24.24" viewBox="0 0 94.95 24.24">
  <title>Artboard 69</title>
  <g id="text">
    <g>
      <path d="M5.7,2.57H0V0H14.2V2.57H8.5V18.75H5.7Z"/>
      <path d="M16.8,6.32h2.45L19.37,8A4,4,0,0,1,23,6.12a4.19,4.19,0,0,1,1.22.18l-.35,2.52a4.62,4.62,0,0,0-1.27-.17c-1.73,0-3.18,1.27-3.18,3.62v6.48H16.8Z"/>
      <path d="M27.4,6.32l3.85,9.08,3.4-9.08h2.72l-7,17.92H27.7l2.17-5.57L24.52,6.32Z"/>
      <path d="M45.7,0h3l9.75,14.65V0h2.67V18.75h-3L48.35,4.05v14.7H45.7Z"/>
      <path d="M77.77,12.52a6.53,6.53,0,0,1-13,0,6.53,6.53,0,0,1,13,0Zm-10.35,0a3.83,3.83,0,1,0,7.65,0,3.83,3.83,0,1,0-7.65,0Z"/>
      <path d="M81.77,6.32l2,9.4,3.07-6.1h.45l3.1,6.1,1.93-9.4H95L92.22,18.75H89.5L87.1,14l-2.45,4.8H81.9L79.2,6.32Z"/>
    </g>
  </g>
</svg>
