<svg xmlns="http://www.w3.org/2000/svg" width="802.26" height="791.67" viewBox="0 0 802.26 791.67">
  <defs>
    <style>
      .cls-1 {
        fill: #ff642d;
      }
    </style>
  </defs>
  <title>Artboard 57</title>
  <g id="pic">
    <path class="cls-1" d="M802,255.41C727.75,125.32,558.22,38.61,385.4,91.82a2.11,2.11,0,0,1-2-3.6C438.77,39.3,510.7,12.46,585.68,15.66a2.1,2.1,0,0,0,.57-4.14C429-26.94,270.58,30.64,179,188a2.11,2.11,0,0,1-3.93-1.3C183,114.38,212.46,57.14,260.1,10a2.11,2.11,0,0,0-2.61-3.28C128.8,88.29,58.85,244.37,101.14,405.22a2.1,2.1,0,0,1-3.58,2C47.1,349.6,23.22,281,26.63,202.69a2.11,2.11,0,0,0-4.15-.63c-41.1,154.3,19.73,325.36,176.26,410.82a2.11,2.11,0,0,1-1.15,4A286.39,286.39,0,0,1,3.67,523.06a2.1,2.1,0,0,0-3.36,2.48C81.06,666.07,252.5,739.37,417.89,689.77a2.12,2.12,0,0,1,2,3.6c-47.37,42.14-115.92,76.15-205.31,72a2.1,2.1,0,0,0-.61,4.13c170.84,44.13,337.5-39.83,410.39-181.29a2.11,2.11,0,0,1,4,1.13C624.17,663.68,593.29,734,533.6,788a2.11,2.11,0,0,0,2.51,3.37C682.4,707.72,748.26,531.09,698.6,372.07a2.11,2.11,0,0,1,3.6-2c45.69,50.59,77.34,119.4,73.62,206.09a2.11,2.11,0,0,0,4.15.58c41-165.27-32.69-330.12-181.7-409.68a2.11,2.11,0,0,1,1.12-4c84.51,4.53,152.41,42.66,199.19,94.74A2.09,2.09,0,0,0,802,255.41Z"/>
  </g>
</svg>
