<svg width="158" height="20" viewBox="0 0 158 20" fill="none" xmlns="http://www.w3.org/2000/svg">
<path d="M0.360107 5.06L2.52011 15H4.72011L6.68011 11.16L8.60011 15H10.7801L12.9601 5.06H10.8801L9.34011 12.58L6.86011 7.7H6.50011L4.04011 12.58L2.42011 5.06H0.360107Z" fill="black"/>
<path d="M14.3609 1.82C14.3609 2.58 14.9209 3.14 15.6809 3.14C16.4609 3.14 17.0209 2.58 17.0209 1.82C17.0209 1.06 16.4609 0.52 15.6809 0.52C14.9209 0.52 14.3609 1.06 14.3609 1.82ZM14.6609 15H16.7209V5.06H14.6609V15Z" fill="black"/>
<path d="M18.2167 6.32V6.86H20.0167V12.14C20.0167 14.06 21.1967 15.18 23.1967 15.18C24.0167 15.18 24.8167 14.98 25.5367 14.64L25.0567 12.94C24.5567 13.14 24.0767 13.28 23.6167 13.28C22.6167 13.28 22.0767 12.82 22.0767 11.7V6.86H25.6567V5.06H22.0767V3H21.5767L18.2167 6.32Z" fill="black"/>
<path d="M27.3078 15H29.3678V9.44C29.3678 7.54 30.6478 6.8 31.9078 6.8C33.2278 6.8 34.2078 7.64 34.2078 9.3V15H36.2878V9.02C36.2878 6.28 34.5078 4.88 32.3878 4.88C31.0878 4.88 30.0678 5.42 29.3678 6.22V0H27.3078V15Z" fill="black"/>
<path d="M49.2378 15H51.0978V8.92C51.0978 6.26 49.4178 4.88 46.8578 4.88C44.4778 4.88 42.8978 6.1 42.4178 8L44.3978 8.36C44.6978 7.18 45.5578 6.64 46.8378 6.64C48.0178 6.64 48.8578 7.18 49.0578 8.4L46.3778 9.02C44.1578 9.54 42.4778 10.34 42.4778 12.32C42.4778 14.12 43.8178 15.18 45.6578 15.18C47.1378 15.18 48.3578 14.5 49.1378 13.36L49.2378 15ZM44.5978 12.18C44.5978 11.32 45.2978 10.94 46.4378 10.66L49.0978 10V10.24C49.0978 12.36 47.5578 13.44 46.0178 13.44C45.1378 13.44 44.5978 12.98 44.5978 12.18Z" fill="black"/>
<path d="M61.3521 15.18C64.0721 15.18 65.4121 13.8 65.4121 11.98C65.4121 9.7 63.3921 9.36 61.7121 9.08C60.5121 8.88 59.4921 8.72 59.4921 7.82C59.4921 7.08 60.2321 6.58 61.3521 6.58C62.3721 6.58 63.0321 7.04 63.2921 8.02L65.3521 7.58C64.8121 5.84 63.4721 4.88 61.3521 4.88C59.0321 4.88 57.3721 6.16 57.3721 7.92C57.3721 10.16 59.2521 10.56 60.8921 10.84C62.1521 11.06 63.2721 11.2 63.2721 12.12C63.2721 13.02 62.5121 13.48 61.3721 13.48C60.1121 13.48 59.3321 12.9 59.0721 11.74L56.9721 12.18C57.4921 14.24 59.1321 15.18 61.3521 15.18Z" fill="black"/>
<path d="M67.0039 1.82C67.0039 2.58 67.5639 3.14 68.3239 3.14C69.1039 3.14 69.6639 2.58 69.6639 1.82C69.6639 1.06 69.1039 0.52 68.3239 0.52C67.5639 0.52 67.0039 1.06 67.0039 1.82ZM67.3039 15H69.3639V5.06H67.3039V15Z" fill="black"/>
<path d="M72.2796 15H74.3396V9.44C74.3396 7.52 75.6196 6.8 76.8796 6.8C78.1996 6.8 79.1796 7.64 79.1796 9.3V15H81.2596V9.02C81.2596 6.28 79.4796 4.88 77.3596 4.88C76.0996 4.88 75.0396 5.4 74.2796 6.3L74.1996 5.06H72.2796V15Z" fill="black"/>
<path d="M83.1551 9.96C83.1551 12.88 85.2151 15.02 87.9951 15.02C89.3151 15.02 90.4551 14.48 91.2551 13.56V15.02C91.2551 16.72 90.1351 17.68 88.3551 17.68C86.8151 17.68 85.8951 16.98 85.6751 15.8L83.5551 16.2C83.8751 18.14 85.5551 19.58 88.3351 19.58C91.4151 19.58 93.3151 17.64 93.3151 14.86V5.06H91.3951L91.2951 6.4C90.4951 5.46 89.3551 4.88 87.9951 4.88C85.2151 4.88 83.1551 7.02 83.1551 9.96ZM85.3151 9.96C85.3151 8.06 86.5151 6.78 88.2951 6.78C90.0551 6.78 91.2551 8.06 91.2551 9.96C91.2551 11.84 90.0551 13.12 88.2951 13.12C86.5151 13.12 85.3151 11.84 85.3151 9.96Z" fill="black"/>
<path d="M96.2351 15H98.2951V0H96.2351V15Z" fill="black"/>
<path d="M105.611 15.18C108.011 15.18 109.731 13.98 110.271 12L108.291 11.64C107.931 12.7 107.071 13.36 105.611 13.36C103.951 13.36 102.771 12.44 102.571 10.6H110.271C110.311 10.28 110.351 9.94 110.351 9.64C110.351 6.82 108.351 4.88 105.491 4.88C102.551 4.88 100.431 7.06 100.431 10.02C100.431 13.02 102.411 15.18 105.611 15.18ZM105.491 6.62C106.951 6.62 107.951 7.5 108.151 8.94H102.651C102.991 7.4 104.171 6.62 105.491 6.62Z" fill="black"/>
<path d="M115.968 10.02C115.968 13 118.128 15.18 121.048 15.18C123.528 15.18 125.408 13.64 125.748 11.58L123.688 11.22C123.428 12.46 122.488 13.28 121.048 13.28C119.328 13.28 118.128 11.98 118.128 10.02C118.128 8.04 119.348 6.78 121.068 6.78C122.388 6.78 123.308 7.54 123.608 8.74L125.688 8.4C125.228 6.28 123.488 4.88 121.068 4.88C118.148 4.88 115.968 7.04 115.968 10.02Z" fill="black"/>
<path d="M127.642 15H129.702V0H127.642V15Z" fill="black"/>
<path d="M132.318 1.82C132.318 2.58 132.878 3.14 133.638 3.14C134.418 3.14 134.978 2.58 134.978 1.82C134.978 1.06 134.418 0.52 133.638 0.52C132.878 0.52 132.318 1.06 132.318 1.82ZM132.618 15H134.678V5.06H132.618V15Z" fill="black"/>
<path d="M136.814 10.02C136.814 13 138.974 15.18 141.894 15.18C144.374 15.18 146.254 13.64 146.594 11.58L144.534 11.22C144.274 12.46 143.334 13.28 141.894 13.28C140.174 13.28 138.974 11.98 138.974 10.02C138.974 8.04 140.194 6.78 141.914 6.78C143.234 6.78 144.154 7.54 144.454 8.74L146.534 8.4C146.074 6.28 144.334 4.88 141.914 4.88C138.994 4.88 136.814 7.04 136.814 10.02Z" fill="black"/>
<path d="M154.807 5.06L151.747 8.54H150.547V0H148.487V15H150.547V10.52H151.627L154.987 15H157.427L153.307 9.52L157.307 5.06H154.807Z" fill="black"/>
</svg>
