<svg width="259" height="35" viewBox="0 0 259 35" fill="none" xmlns="http://www.w3.org/2000/svg">
<path d="M0.709961 27H4.45496V6.175L12.925 17.095H13.73L22.235 6.035V27H26.015V0.75H21.85L13.45 11.81L4.87496 0.75H0.709961V27Z" fill="black"/>
<path d="M43.0457 27H46.3007V16.36C46.3007 11.705 43.3607 9.29 38.8807 9.29C34.7157 9.29 31.9507 11.425 31.1107 14.75L34.5757 15.38C35.1007 13.315 36.6057 12.37 38.8457 12.37C40.9107 12.37 42.3807 13.315 42.7307 15.45L38.0407 16.535C34.1557 17.445 31.2157 18.845 31.2157 22.31C31.2157 25.46 33.5607 27.315 36.7807 27.315C39.3707 27.315 41.5057 26.125 42.8707 24.13L43.0457 27ZM34.9257 22.065C34.9257 20.56 36.1507 19.895 38.1457 19.405L42.8007 18.25V18.67C42.8007 22.38 40.1057 24.27 37.4107 24.27C35.8707 24.27 34.9257 23.465 34.9257 22.065Z" fill="black"/>
<path d="M51.3755 27H54.9805V17.935C54.9805 14.645 57.0105 12.86 59.4255 12.86C60.0205 12.86 60.6155 12.93 61.2105 13.105L61.7005 9.57C61.0355 9.395 60.5805 9.325 59.9855 9.325C57.6755 9.325 55.9955 10.375 54.9805 11.985L54.8055 9.605H51.3755V27Z" fill="black"/>
<path d="M75.7655 9.605L70.4105 15.695H68.3105V0.75H64.7056V27H68.3105V19.16H70.2005L76.0806 27H80.3505L73.1405 17.41L80.1405 9.605H75.7655Z" fill="black"/>
<path d="M90.2132 27.315C94.4132 27.315 97.4232 25.215 98.3682 21.75L94.9032 21.12C94.2732 22.975 92.7682 24.13 90.2132 24.13C87.3082 24.13 85.2432 22.52 84.8932 19.3H98.3682C98.4382 18.74 98.5082 18.145 98.5082 17.62C98.5082 12.685 95.0082 9.29 90.0032 9.29C84.8582 9.29 81.1482 13.105 81.1482 18.285C81.1482 23.535 84.6132 27.315 90.2132 27.315ZM90.0032 12.335C92.5582 12.335 94.3082 13.875 94.6582 16.395H85.0332C85.6282 13.7 87.6932 12.335 90.0032 12.335Z" fill="black"/>
<path d="M100.228 11.81V12.755H103.378V21.995C103.378 25.355 105.443 27.315 108.943 27.315C110.378 27.315 111.778 26.965 113.038 26.37L112.198 23.395C111.323 23.745 110.483 23.99 109.678 23.99C107.928 23.99 106.983 23.185 106.983 21.225V12.755H113.248V9.605H106.983V6H106.108L100.228 11.81Z" fill="black"/>
<path d="M125.158 27H142.273V23.465H129.078V14.995H138.108V11.46H129.078V4.285H141.923V0.75H125.158V27Z" fill="black"/>
<path d="M148.111 9.605H143.806L149.756 17.97L143.876 27H147.796L151.786 20.805L156.196 27H160.466L154.201 18.145L160.046 9.605H156.021L152.206 15.345L148.111 9.605Z" fill="black"/>
<path d="M163.348 9.605V34.7H166.953V24.69C168.353 26.335 170.383 27.315 172.728 27.315C177.558 27.315 181.233 23.5 181.233 18.285C181.233 13.105 177.558 9.29 172.728 9.29C170.313 9.29 168.283 10.34 166.848 12.055L166.708 9.605H163.348ZM172.203 12.615C175.318 12.615 177.453 14.89 177.453 18.285C177.453 21.68 175.318 23.99 172.203 23.99C169.053 23.99 166.953 21.68 166.953 18.285C166.953 14.89 169.053 12.615 172.203 12.615Z" fill="black"/>
<path d="M185.326 27H188.931V0.75H185.326V27Z" fill="black"/>
<path d="M202.153 9.29C196.903 9.29 193.018 13.105 193.018 18.285C193.018 23.5 196.903 27.315 202.153 27.315C207.438 27.315 211.288 23.5 211.288 18.285C211.288 13.105 207.438 9.29 202.153 9.29ZM202.153 12.615C205.338 12.615 207.508 14.89 207.508 18.285C207.508 21.68 205.338 23.99 202.153 23.99C198.968 23.99 196.798 21.68 196.798 18.285C196.798 14.89 198.968 12.615 202.153 12.615Z" fill="black"/>
<path d="M215.37 27H218.975V17.935C218.975 14.645 221.005 12.86 223.42 12.86C224.015 12.86 224.61 12.93 225.205 13.105L225.695 9.57C225.03 9.395 224.575 9.325 223.98 9.325C221.67 9.325 219.99 10.375 218.975 11.985L218.8 9.605H215.37V27Z" fill="black"/>
<path d="M236.16 27.315C240.36 27.315 243.37 25.215 244.315 21.75L240.85 21.12C240.22 22.975 238.715 24.13 236.16 24.13C233.255 24.13 231.19 22.52 230.84 19.3H244.315C244.385 18.74 244.455 18.145 244.455 17.62C244.455 12.685 240.955 9.29 235.95 9.29C230.805 9.29 227.095 13.105 227.095 18.285C227.095 23.535 230.56 27.315 236.16 27.315ZM235.95 12.335C238.505 12.335 240.255 13.875 240.605 16.395H230.98C231.575 13.7 233.64 12.335 235.95 12.335Z" fill="black"/>
<path d="M248.661 27H252.266V17.935C252.266 14.645 254.296 12.86 256.711 12.86C257.306 12.86 257.901 12.93 258.496 13.105L258.986 9.57C258.321 9.395 257.866 9.325 257.271 9.325C254.961 9.325 253.281 10.375 252.266 11.985L252.091 9.605H248.661V27Z" fill="black"/>
</svg>
